<svg width="46" height="46" viewBox="0 0 46 46" fill="none" xmlns="http://www.w3.org/2000/svg">
<g clip-path="url(#clip0)">
<g filter="url(#filter0_d)">
<path d="M34.7638 12.2362C34.0552 11.5272 33.2139 10.9649 32.2879 10.5812C31.3619 10.1975 30.3694 10 29.367 10C28.3647 10 27.3722 10.1975 26.4462 10.5812C25.5202 10.9649 24.6788 11.5272 23.9702 12.2362L22.4996 13.7068L21.029 12.2362C19.5977 10.8048 17.6564 10.0007 15.6322 10.0007C13.608 10.0007 11.6668 10.8048 10.2354 12.2362C8.80411 13.6675 8 15.6088 8 17.633C8 19.6572 8.80411 21.5985 10.2354 23.0298L11.706 24.5004L22.4996 35.294L33.2932 24.5004L34.7638 23.0298C35.4728 22.3212 36.0351 21.4798 36.4188 20.5538C36.8025 19.6278 37 18.6353 37 17.633C37 16.6306 36.8025 15.6381 36.4188 14.7121C36.0351 13.7861 35.4728 12.9448 34.7638 12.2362V12.2362Z" fill="#CF3636"/>
<path d="M34.7638 12.2362C34.0552 11.5272 33.2139 10.9649 32.2879 10.5812C31.3619 10.1975 30.3694 10 29.367 10C28.3647 10 27.3722 10.1975 26.4462 10.5812C25.5202 10.9649 24.6788 11.5272 23.9702 12.2362L22.4996 13.7068L21.029 12.2362C19.5977 10.8048 17.6564 10.0007 15.6322 10.0007C13.608 10.0007 11.6668 10.8048 10.2354 12.2362C8.80411 13.6675 8 15.6088 8 17.633C8 19.6572 8.80411 21.5985 10.2354 23.0298L11.706 24.5004L22.4996 35.294L33.2932 24.5004L34.7638 23.0298C35.4728 22.3212 36.0351 21.4798 36.4188 20.5538C36.8025 19.6278 37 18.6353 37 17.633C37 16.6306 36.8025 15.6381 36.4188 14.7121C36.0351 13.7861 35.4728 12.9448 34.7638 12.2362V12.2362Z" stroke="black" stroke-width="3" stroke-linecap="round" stroke-linejoin="round"/>
</g>
</g>
<defs>
<filter id="filter0_d" x="3.5" y="8.5" width="38" height="41.294" filterUnits="userSpaceOnUse" color-interpolation-filters="sRGB">
<feFlood flood-opacity="0" result="BackgroundImageFix"/>
<feColorMatrix in="SourceAlpha" type="matrix" values="0 0 0 0 0 0 0 0 0 0 0 0 0 0 0 0 0 0 127 0"/>
<feOffset dy="10"/>
<feGaussianBlur stdDeviation="1.5"/>
<feColorMatrix type="matrix" values="0 0 0 0 0 0 0 0 0 0 0 0 0 0 0 0 0 0 0.25 0"/>
<feBlend mode="normal" in2="BackgroundImageFix" result="effect1_dropShadow"/>
<feBlend mode="normal" in="SourceGraphic" in2="effect1_dropShadow" result="shape"/>
</filter>
<clipPath id="clip0">
<rect width="46" height="46" fill="white"/>
</clipPath>
</defs>
</svg>
